<svg xmlns="http://www.w3.org/2000/svg" xmlns:xlink="http://www.w3.org/1999/xlink" width="24.415" height="25.587" viewBox="0 0 24.415 25.587">
  <defs>
    <clipPath id="clip-path">
      <rect id="Rectangle_10097" data-name="Rectangle 10097" width="24.415" height="25.587" fill="none"/>
    </clipPath>
  </defs>
  <g id="Group_62637" data-name="Group 62637" transform="translate(6.559 3.793)">
    <g id="Group_62964" data-name="Group 62964" transform="translate(-6.559 -3.793)">
      <g id="Group_62963" data-name="Group 62963" clip-path="url(#clip-path)">
        <path id="Path_103380" data-name="Path 103380" d="M306.643,3.226c0,.077.073.113.111.166a.74.74,0,0,1-1.145.937c-.464-.533-.917-1.077-1.375-1.615-.231-.272-.461-.547-.7-.817a.745.745,0,0,1,.426-1.3c1.053-.2,2.108-.395,3.164-.581A.733.733,0,0,1,308.02.6a.745.745,0,0,1-.645.869c-.175.035-.35.068-.577.111.241.139.449.25.649.374a12.17,12.17,0,0,1,6.037,9.443,12.078,12.078,0,0,1-3.322,9.8,12.2,12.2,0,0,1-4,2.845c-.043.019-.086.037-.129.053a.754.754,0,0,1-.983-.377.74.74,0,0,1,.391-.974c.386-.183.779-.354,1.146-.575a10.691,10.691,0,0,0,5.393-8.13,10.627,10.627,0,0,0-2.719-8.708,10.582,10.582,0,0,0-2.47-2.043c-.033-.02-.067-.04-.1-.057a.122.122,0,0,0-.046,0" transform="translate(-289.143 0)"/>
        <path id="Path_103381" data-name="Path 103381" d="M6.772,53.339a12.748,12.748,0,0,1-1.8-1.136A12.431,12.431,0,0,1,3.413,33.711a12.2,12.2,0,0,1,4.008-2.839.774.774,0,0,1,.913.09.726.726,0,0,1-.194,1.206c-.382.191-.777.357-1.145.577A10.988,10.988,0,0,0,4.011,49.264a10.615,10.615,0,0,0,3,2.512c-.1-.124-.164-.2-.219-.276a.737.737,0,0,1,1.152-.917c.7.82,1.407,1.64,2.1,2.47a.737.737,0,0,1-.457,1.277q-1.558.294-3.119.571a.741.741,0,1,1-.282-1.45c.174-.04.351-.067.592-.112" transform="translate(0 -29.331)"/>
        <g id="Icon_feather-settings" data-name="Icon feather-settings" transform="translate(4.425 5.008)">
          <path id="Path_103382" data-name="Path 103382" d="M16.928,15.214A1.714,1.714,0,1,1,15.214,13.5,1.714,1.714,0,0,1,16.928,15.214Z" transform="translate(-7.429 -7.429)" fill="none" stroke="#151515" stroke-linecap="round" stroke-linejoin="round" stroke-width="1.5"/>
          <path id="Path_103383" data-name="Path 103383" d="M12.013,9.5a.943.943,0,0,0,.189,1.04l.034.034a1.143,1.143,0,1,1-1.617,1.617l-.034-.034a.95.95,0,0,0-1.611.674v.1a1.143,1.143,0,1,1-2.286,0v-.051A.989.989,0,0,0,5.031,12.2L5,12.236A1.143,1.143,0,1,1,3.38,10.619l.034-.034A.95.95,0,0,0,2.74,8.974h-.1a1.143,1.143,0,1,1,0-2.286h.051a.989.989,0,0,0,.674-1.657L3.334,5A1.143,1.143,0,1,1,4.951,3.38l.034.034a.943.943,0,0,0,1.04.189h.046a.943.943,0,0,0,.571-.863v-.1a1.143,1.143,0,1,1,2.286,0v.051a.95.95,0,0,0,1.611.674l.034-.034a1.143,1.143,0,1,1,1.617,1.617l-.034.034a.943.943,0,0,0-.189,1.04v.046a.943.943,0,0,0,.863.571h.1a1.143,1.143,0,0,1,0,2.286h-.051a.943.943,0,0,0-.863.571Z" transform="translate(0 0)" fill="none" stroke="#151515" stroke-linecap="round" stroke-linejoin="round" stroke-width="1.5"/>
        </g>
      </g>
    </g>
  </g>
</svg>
