<svg id="Group_62415" data-name="Group 62415" xmlns="http://www.w3.org/2000/svg" xmlns:xlink="http://www.w3.org/1999/xlink" width="50.296" height="50.302" viewBox="0 0 50.296 50.302">
  <defs>
    <clipPath id="clip-path">
      <rect id="Rectangle_9974" data-name="Rectangle 9974" width="50.296" height="50.302" fill="#5d20d1"/>
    </clipPath>
  </defs>
  <g id="Group_62414" data-name="Group 62414" clip-path="url(#clip-path)">
    <path id="Path_103199" data-name="Path 103199" d="M38.221,239.318H12.11c-.11-.031-.218-.066-.33-.091a7.513,7.513,0,0,1-5.912-7.486c.087-3.252.011-6.508.028-9.762a.685.685,0,0,0-.584-.789A7.349,7.349,0,0,1,0,214a4.4,4.4,0,0,1,4.338-4.365q20.825-.01,41.649-.005a4.138,4.138,0,0,1,1.8.416,4.646,4.646,0,0,1,2.509,3.156v1.963c-.017.063-.038.125-.052.188a7.372,7.372,0,0,1-5.4,5.9c-.387.118-.4.357-.4.667,0,3.37.009,6.74,0,10.11a7.18,7.18,0,0,1-2.657,5.621,8.019,8.019,0,0,1-3.562,1.665m-32.334-23.9c0-.767,0-1.534,0-2.3,0-.23-.032-.448-.322-.448a5.152,5.152,0,0,0-1.461.069,1.42,1.42,0,0,0-1.072,1.413,4.349,4.349,0,0,0,2.42,3.82c.371.2.446.058.439-.3-.014-.751,0-1.5-.005-2.253m39.485-2.759h-.245c-.681,0-.683,0-.683.684q0,2.13,0,4.26c0,.543.041.57.5.327a4.322,4.322,0,0,0,2.031-2.235,3.985,3.985,0,0,0,.314-1.623c-.022-.922-.718-1.412-1.92-1.413" transform="translate(0.001 -189.016)" fill="#5d20d1"/>
    <path id="Path_103200" data-name="Path 103200" d="M78.26,1.579A5.645,5.645,0,0,1,82.8,4.466c.241.394.434.459.848.269C86.864,3.267,90.086,1.82,93.307.37a4.481,4.481,0,0,1,.867-.334A1.492,1.492,0,0,1,95.9.995a1.489,1.489,0,0,1-.742,1.875c-.981.487-1.983.931-2.98,1.386Q77.771,10.845,63.359,17.43a3.477,3.477,0,0,1-.826.3,1.489,1.489,0,0,1-1.694-1.018,1.505,1.505,0,0,1,.811-1.85c1.1-.533,2.225-1.033,3.339-1.546,2.243-1.032,4.482-2.074,6.734-3.087.436-.2.514-.389.36-.852-1.278-3.859,1.577-7.8,6.177-7.8" transform="translate(-54.785 0)" fill="#ed9a4d"/>
    <path id="Path_103201" data-name="Path 103201" d="M303.249,76.281c-1.149.012-1.824-.567-1.821-1.515a1.5,1.5,0,0,1,1.339-1.5c.4-.049.808-.111,1.211-.174a1.689,1.689,0,0,0,1.476-1.539c.148-.788.111-1.593.273-2.382a4.728,4.728,0,0,1,4.236-4.133,5.882,5.882,0,0,1,1.365-.115,1.515,1.515,0,0,1,.184,3.01c-.225.04-.453.065-.681.085-1.5.131-2.09.731-2.166,2.24a12.011,12.011,0,0,1-.232,1.993,4.686,4.686,0,0,1-4.168,3.914,4.313,4.313,0,0,1-1.016.113" transform="translate(-271.781 -58.533)" fill="#5d20d1"/>
    <path id="Path_103202" data-name="Path 103202" d="M393.136,76.29c-1.2.015-1.876-.549-1.883-1.491a1.494,1.494,0,0,1,1.364-1.524c.389-.044.776-.106,1.163-.166a1.7,1.7,0,0,0,1.5-1.57c.142-.789.111-1.592.272-2.382a4.741,4.741,0,0,1,4.306-4.119,6.14,6.14,0,0,1,1.267-.1,1.515,1.515,0,0,1,.182,3.015c-.209.036-.421.061-.632.079-1.535.135-2.119.729-2.191,2.268a12.012,12.012,0,0,1-.236,1.992,4.705,4.705,0,0,1-4.139,3.886c-.209.037-.419.073-.629.1-.146.017-.294.015-.347.017" transform="translate(-352.771 -58.544)" fill="#5d20d1"/>
  </g>
</svg>
