<svg id="Group_62419" data-name="Group 62419" xmlns="http://www.w3.org/2000/svg" xmlns:xlink="http://www.w3.org/1999/xlink" width="54.029" height="49.94" viewBox="0 0 54.029 49.94">
  <defs>
    <clipPath id="clip-path">
      <rect id="Rectangle_9976" data-name="Rectangle 9976" width="54.029" height="49.94" fill="#5d20d1"/>
    </clipPath>
  </defs>
  <g id="Group_62418" data-name="Group 62418" clip-path="url(#clip-path)">
    <path id="Path_103205" data-name="Path 103205" d="M8.519,356.966A2.1,2.1,0,0,1,7.3,354.757c.05-.722-.025-1.453.021-2.176.037-.583-.132-.791-.748-.774-1.529.043-3.06.017-4.591.014A1.8,1.8,0,0,1,0,350.03a1.84,1.84,0,0,1,1.934-1.916c.137,0,.275,0,.412,0q24.662,0,49.325,0a3.236,3.236,0,0,1,1.161.138A1.83,1.83,0,0,1,54,350.323a1.783,1.783,0,0,1-1.725,1.491c-1.609.02-3.218.034-4.826-.007-.615-.016-.786.191-.748.774.046.7-.029,1.415.02,2.117a2.136,2.136,0,0,1-1.224,2.268H44.322A2.04,2.04,0,0,1,43,354.825c.017-.745,0-1.49,0-2.235,0-.767,0-.769-.79-.769H22.569c-3.627,0-7.255.008-10.882-.009-.5,0-.708.131-.683.661.037.782,0,1.568.013,2.352a2.043,2.043,0,0,1-1.32,2.142Z" transform="translate(0 -307.026)" fill="#5d20d1"/>
    <path id="Path_103206" data-name="Path 103206" d="M158.207,18.036q-4.326,0-8.652,0c-.778,0-.8-.023-.8-.786q0-7.532,0-15.064A1.938,1.938,0,0,1,150.937.006q7.3-.013,14.6,0a1.915,1.915,0,0,1,2.122,2.119c.006,5.061,0,10.121.014,15.182,0,.575-.2.742-.751.738-2.9-.019-5.807-.009-8.71-.009m.02-14.218c-.411,0-.823-.017-1.233,0a1.659,1.659,0,0,0-1.587,1.456,1.6,1.6,0,0,0,1.22,1.877,7.727,7.727,0,0,0,3.145,0,1.611,1.611,0,0,0,1.221-1.877A1.672,1.672,0,0,0,159.4,3.82c-.39-.019-.783,0-1.174,0" transform="translate(-131.197 0.001)" fill="#5d20d1"/>
    <path id="Path_103207" data-name="Path 103207" d="M252.833,197.825q-4.3,0-8.6,0c-.794,0-.812-.018-.813-.771,0-4.906.008-9.811-.012-14.717,0-.588.168-.785.765-.783,5.319.018,10.637.007,15.956.013,1.518,0,2.19.684,2.191,2.2q0,6.623,0,13.245c0,.794-.018.811-.836.811q-4.328,0-8.655,0m-.016-9.106c.47,0,.941.006,1.411,0a1.721,1.721,0,1,0,.123-3.439c-1-.05-2-.049-3,0a1.722,1.722,0,0,0,.111,3.442c.451.008.9,0,1.352,0" transform="translate(-214.682 -160.125)" fill="#ed9a4d"/>
    <path id="Path_103208" data-name="Path 103208" d="M63.525,197.826q-4.355,0-8.709,0c-.772,0-.8-.026-.8-.791q0-6.619,0-13.238a1.974,1.974,0,0,1,2.2-2.23c5.316-.006,10.632.005,15.947-.013.6,0,.768.193.766.782-.021,4.9-.011,9.806-.012,14.709,0,.763-.017.78-.8.781q-4.3,0-8.592,0m-.057-9.106c.47,0,.941.007,1.411,0a1.718,1.718,0,0,0,.2-3.428,23.873,23.873,0,0,0-3.173,0,1.717,1.717,0,0,0,.214,3.426c.451.006.9,0,1.353,0" transform="translate(-47.642 -160.126)" fill="#5d20d1"/>
  </g>
</svg>
