<svg id="Component_72_5" data-name="Component 72 – 5" xmlns="http://www.w3.org/2000/svg" xmlns:xlink="http://www.w3.org/1999/xlink" width="13.07" height="14.976" viewBox="0 0 13.07 14.976">
  <defs>
    <clipPath id="clip-path">
      <rect id="Rectangle_10123" data-name="Rectangle 10123" width="13.07" height="14.976" fill="#5d20d1"/>
    </clipPath>
  </defs>
  <g id="Group_63067" data-name="Group 63067" clip-path="url(#clip-path)">
    <path id="Path_103417" data-name="Path 103417" d="M13.068,14.185c0,.229,0,.459,0,.688,0,.08-.015.1-.1.1-.606,0-1.212,0-1.818,0H1.717a.577.577,0,0,0-.063-.018A1.936,1.936,0,0,1,0,12.991q0-5.5,0-11.009A1.948,1.948,0,0,1,1.96,0q4.765-.008,9.529,0a1.573,1.573,0,0,1,.727.174,1.612,1.612,0,0,1,.852,1.179V11.888a.706.706,0,0,1-.736.488c-.082,0-.164,0-.246,0H2.153c-.087,0-.175,0-.262,0a.629.629,0,0,0-.592.557.644.644,0,0,0,.472.727,1.234,1.234,0,0,0,.326.019q5.1,0,10.2,0a.723.723,0,0,1,.775.5M2.494,6.209q0-2.3,0-4.61c0-.055,0-.109,0-.164,0-.1-.045-.14-.14-.139-.148,0-.3,0-.443,0a.63.63,0,0,0-.536.326.818.818,0,0,0-.084.461q0,4.421,0,8.842c0,.044,0,.087,0,.131,0,.093.041.131.135.1a2.792,2.792,0,0,1,.83-.071c.236,0,.237,0,.237-.238q0-2.321,0-4.642m3.271-.031c0,.377-.007.754,0,1.131a.882.882,0,0,0,1.37.753q.9-.557,1.777-1.145a.859.859,0,0,0,.013-1.45c-.6-.4-1.209-.785-1.818-1.171a.788.788,0,0,0-.563-.126.891.891,0,0,0-.779.91c-.005.366,0,.732,0,1.1" transform="translate(0 0)" fill="#5d20d1"/>
  </g>
</svg>
