<svg xmlns="http://www.w3.org/2000/svg" xmlns:xlink="http://www.w3.org/1999/xlink" width="40.096" height="51.341" viewBox="0 0 40.096 51.341">
  <defs>
    <clipPath id="clip-path">
      <rect id="Rectangle_9972" data-name="Rectangle 9972" width="40.096" height="51.341" transform="translate(-2)" fill="#5d20d1"/>
    </clipPath>
    <clipPath id="clip-path-2">
      <rect id="Rectangle_9971" data-name="Rectangle 9971" width="38.555" height="50.497" fill="#5d20d1"/>
    </clipPath>
  </defs>
  <g id="Group_62411" data-name="Group 62411" transform="translate(2)">
    <g id="Group_62410" data-name="Group 62410" transform="translate(0 0)" clip-path="url(#clip-path)">
      <g id="Group_62409" data-name="Group 62409" transform="translate(-0.878 0.228)">
        <g id="Group_62408" data-name="Group 62408" clip-path="url(#clip-path-2)">
          <g id="Group_62407" data-name="Group 62407">
            <g id="Group_62406" data-name="Group 62406" clip-path="url(#clip-path-2)">
              <path id="Path_103192" data-name="Path 103192" d="M31.218,105.917H5.659a1.427,1.427,0,0,0-.162-.056,4.589,4.589,0,0,1-3.893-4.79q0-17,0-33.992A4.578,4.578,0,0,1,5.34,62.506a16.866,16.866,0,0,1,2.455-.1c.5-.031.673.157.665.659-.024,1.528.009,3.057-.017,4.585-.009.532.137.749.707.747q9.28-.023,18.559,0c.55,0,.735-.177.724-.729-.03-1.509.015-3.019-.022-4.528-.015-.6.2-.779.761-.737.513.038,1.031,0,1.546.012a4.618,4.618,0,0,1,4.548,4.6q.014,17.168,0,34.336a4.472,4.472,0,0,1-1.8,3.612,5.373,5.373,0,0,1-2.241.961M18.477,83.307q3.466,0,6.933,0c1.222,0,2.445.015,3.667-.017a1.5,1.5,0,0,0,1.614-1.516q.047-4.013,0-8.027a1.486,1.486,0,0,0-1.366-1.519,6.035,6.035,0,0,0-1.024-.09q-9.855-.008-19.71-.006a4.579,4.579,0,0,0-1.136.125,1.468,1.468,0,0,0-1.181,1.488q-.01,3.985,0,7.97a1.519,1.519,0,0,0,1.431,1.568,8.378,8.378,0,0,0,.858.024q4.956,0,9.913,0M10.083,87.37v0c-.63,0-1.261-.019-1.89,0a1.738,1.738,0,0,0-.014,3.474c1.24.031,2.483.029,3.723,0a1.741,1.741,0,0,0-.043-3.479c-.591-.017-1.184,0-1.776,0m-.066,8.654c.63,0,1.261.02,1.89,0a1.659,1.659,0,0,0,1.643-1.705,1.677,1.677,0,0,0-1.643-1.771q-1.861-.042-3.724,0a1.74,1.74,0,0,0,0,3.477c.61.023,1.222,0,1.833,0m8.422,0v0c.611,0,1.223.014,1.833,0a1.742,1.742,0,0,0,.02-3.483c-1.222-.023-2.445-.025-3.666,0a1.741,1.741,0,0,0-.02,3.477c.61.026,1.222,0,1.833,0m-8.421,5.167v0c.611,0,1.223.015,1.833,0a1.658,1.658,0,0,0,1.7-1.707,1.692,1.692,0,0,0-1.7-1.778c-1.222-.025-2.445-.029-3.666,0a1.74,1.74,0,0,0,0,3.478c.61.024,1.222,0,1.833,0M18.5,87.37c-.611,0-1.222-.014-1.833,0a1.741,1.741,0,0,0-.033,3.479q1.86.041,3.722,0a1.74,1.74,0,0,0-.024-3.477c-.61-.02-1.222,0-1.833,0M26.8,90.859v0c.63,0,1.261.023,1.89-.005a1.738,1.738,0,0,0-.036-3.475q-1.832-.036-3.666,0a1.741,1.741,0,0,0-.021,3.479c.61.023,1.222,0,1.833,0m.018,5.166c.611,0,1.222.017,1.832,0a1.739,1.739,0,0,0,.038-3.477c-1.259-.03-2.52-.033-3.779,0a1.741,1.741,0,0,0,.019,3.473c.629.025,1.259,0,1.889.006m0,1.673c-.611,0-1.222-.017-1.832,0a1.69,1.69,0,0,0-1.683,1.736,1.653,1.653,0,0,0,1.659,1.746c1.221.026,2.443.025,3.664,0a1.745,1.745,0,0,0,1.717-1.723A1.776,1.776,0,0,0,28.6,97.7c-.591-.017-1.183,0-1.775,0M18.5,101.188c.63,0,1.261.024,1.89-.006a1.739,1.739,0,0,0,.024-3.467c-1.278-.043-2.559-.042-3.837,0a1.74,1.74,0,0,0,.034,3.471c.629.027,1.26.005,1.89,0" transform="translate(-1.603 -55.42)" fill="#5d20d1"/>
              <path id="Path_103193" data-name="Path 103193" d="M313.926,130.085a3.63,3.63,0,0,1-2.346,2.547c-.43.154-.665.06-.647-.437.006-.172,0-.344,0-.516q0-17.021,0-34.042c0-1.2.188-1.307,1.26-.716a3.9,3.9,0,0,1,1.736,2.2Z" transform="translate(-275.372 -85.666)" fill="#5d20d1"/>
              <path id="Path_103194" data-name="Path 103194" d="M91.2,12.092c-2.213,0-4.427-.012-6.64.009-.541.005-.748-.182-.745-.726.015-2.673,0-5.346.014-8.02a1.424,1.424,0,0,1,1.62-1.629q5.753-.029,11.506,0c1.112.006,1.566.531,1.567,1.65,0,2.654-.014,5.308.012,7.962.006.578-.178.767-.751.761-2.194-.024-4.389-.01-6.583-.01" transform="translate(-74.365 -1.712)" fill="#ed9a4d"/>
            </g>
          </g>
        </g>
      </g>
    </g>
  </g>
</svg>
